<svg xmlns="http://www.w3.org/2000/svg" xmlns:xlink="http://www.w3.org/1999/xlink" width="96" height="96" viewBox="0 0 96 96">
  <defs>
    <clipPath id="clip-_3">
      <rect width="96" height="96"/>
    </clipPath>
  </defs>
  <g id="_3" data-name="3" clip-path="url(#clip-_3)">
    <rect id="shape" width="96" height="96" rx="13" fill="#f7f7f7"/>
    <path id="github" d="M25,.5A24.783,24.783,0,0,0,0,25.067,24.608,24.608,0,0,0,17.094,48.375c1.25.231,1.708-.529,1.708-1.181,0-.583-.021-2.129-.031-4.177-6.954,1.481-8.421-3.3-8.421-3.3-1.137-2.835-2.781-3.594-2.781-3.594-2.265-1.523.175-1.492.175-1.492a5.23,5.23,0,0,1,3.829,2.531c2.229,3.756,5.852,2.671,7.281,2.044a5.2,5.2,0,0,1,1.583-3.285C14.885,35.31,9.05,33.2,9.05,23.785a9.386,9.386,0,0,1,2.573-6.592,8.6,8.6,0,0,1,.219-6.5s2.094-.658,6.875,2.519a23.97,23.97,0,0,1,12.5,0c4.75-3.177,6.844-2.519,6.844-2.519a8.833,8.833,0,0,1,.25,6.5,9.424,9.424,0,0,1,2.563,6.592c0,9.438-5.844,11.515-11.406,12.119a5.829,5.829,0,0,1,1.688,4.546c0,3.287-.031,5.929-.031,6.727,0,.644.437,1.412,1.719,1.167A24.533,24.533,0,0,0,50,25.067,24.787,24.787,0,0,0,25,.5Z" transform="translate(22.863 23.076)" fill="#212121"/>
    <g id="arrow" transform="translate(0.679 7.695)">
      <g transform="translate(8.236)">
        <path d="M47.645,3.015A39.2,39.2,0,0,0,20.3,14.03V3.015a3.015,3.015,0,1,0-6.03,0V21.106a3.015,3.015,0,0,0,2.062,2.861L34.42,30a3.019,3.019,0,1,0,1.906-5.729L22.968,19.825a33.031,33.031,0,1,1-8.243,16.858,3.015,3.015,0,1,0-5.937-1.058c0,.018-.006.036-.009.054a39.65,39.65,0,0,0-.543,6.534,39.25,39.25,0,1,0,39.409-39.2Z" transform="translate(-8.236)" fill="#212121" stroke="#f7f7f7" stroke-width="3"/>
      </g>
    </g>
  </g>
</svg>
