<svg xmlns="http://www.w3.org/2000/svg" width="583.492" height="55.166" viewBox="0 0 583.492 55.166">
  <g id="logo" transform="translate(-33.299 -73.279)">
    <path id="Path_5" data-name="Path 5" d="M42.66-15.36v11.1A25.463,25.463,0,0,1,35.13-.6,31.756,31.756,0,0,1,26.28.54a23.341,23.341,0,0,1-9.18-1.8A22.466,22.466,0,0,1,9.72-6.24,23.4,23.4,0,0,1,4.8-13.77,24.632,24.632,0,0,1,3-23.28a21.008,21.008,0,0,1,1.74-8.25,23.591,23.591,0,0,1,4.95-7.38,25.034,25.034,0,0,1,7.8-5.31,25.07,25.07,0,0,1,10.29-2.04,40.436,40.436,0,0,1,8.07.69,19.365,19.365,0,0,1,5.97,2.25v11.58a23.452,23.452,0,0,0-2.79-3.45,14.005,14.005,0,0,0-3-2.31,11.924,11.924,0,0,0-3.45-1.29,20.557,20.557,0,0,0-4.2-.39,13.185,13.185,0,0,0-5.64,1.26,16.075,16.075,0,0,0-4.77,3.39,16.389,16.389,0,0,0-3.3,4.98,15.2,15.2,0,0,0-1.23,6.09,19.793,19.793,0,0,0,1.14,6.84,17.355,17.355,0,0,0,3.06,5.37,14.085,14.085,0,0,0,4.44,3.51,11.658,11.658,0,0,0,5.28,1.26,16.571,16.571,0,0,0,3.78-.36,9.814,9.814,0,0,0,2.64-1.02v-7.5q0-1.32-.09-2.25a7.523,7.523,0,0,0-.33-1.65,6.238,6.238,0,0,0-.66-1.38q-.42-.66-1.02-1.44H44.52a8.675,8.675,0,0,0-.96,1.38,6.551,6.551,0,0,0-.57,1.44,8.745,8.745,0,0,0-.27,1.71Q42.66-16.62,42.66-15.36ZM50.88,0q.54-.72.87-1.26a4.851,4.851,0,0,0,.51-1.14,6.459,6.459,0,0,0,.24-1.32q.06-.72.06-1.74l.06-20.94v-.66a11.674,11.674,0,0,0-.3-3.03,5.918,5.918,0,0,0-1.5-2.31H61.5L61.44-5.52q0,1.02.06,1.77a6.514,6.514,0,0,0,.24,1.35,6.548,6.548,0,0,0,.48,1.17q.3.57.72,1.23ZM57-36.66a4.568,4.568,0,0,1-3.45-1.41,4.877,4.877,0,0,1-1.35-3.51A4.644,4.644,0,0,1,53.58-45,4.644,4.644,0,0,1,57-46.38,4.546,4.546,0,0,1,60.39-45a4.7,4.7,0,0,1,1.35,3.42,4.877,4.877,0,0,1-1.35,3.51A4.5,4.5,0,0,1,57-36.66ZM82.14.66A10.592,10.592,0,0,1,74.82-1.8a8.616,8.616,0,0,1-2.76-6.78V-25.32H68.04L80.88-42.3v9.96H88.8v7.02H80.88V-9.9a3.847,3.847,0,0,0,.78,2.55,2.472,2.472,0,0,0,1.98.93,6.4,6.4,0,0,0,3.18-1.02,9.683,9.683,0,0,0,3.06-2.94v8.7A13.209,13.209,0,0,1,82.14.66ZM131.4-40.02l-.06,34.44q0,1.2.03,1.95a6.685,6.685,0,0,0,.18,1.35A4.171,4.171,0,0,0,132-1.17,9.584,9.584,0,0,0,132.84,0H120.48q.42-.66.72-1.17a4.171,4.171,0,0,0,.45-1.11,8.328,8.328,0,0,0,.21-1.35q.06-.75.06-1.89l.06-14.52H104.76V-6.18a19.574,19.574,0,0,0,.09,2.04,11.484,11.484,0,0,0,.27,1.56,5.487,5.487,0,0,0,.51,1.32A11.956,11.956,0,0,0,106.44,0H94.08a5.67,5.67,0,0,0,1.2-2.4,17.74,17.74,0,0,0,.3-3.72V-39.9a14.862,14.862,0,0,0-.3-3.45,5.625,5.625,0,0,0-1.14-2.19h12.12a6.256,6.256,0,0,0-1.2,2.31,15.571,15.571,0,0,0-.3,3.57v12.54h17.22V-40.14a14.455,14.455,0,0,0-.27-3.21,5.176,5.176,0,0,0-1.23-2.19h12.54q-.48.6-.81,1.11a4.216,4.216,0,0,0-.51,1.14,7.134,7.134,0,0,0-.24,1.41Q131.4-41.1,131.4-40.02ZM160.44.06V-1.92A10.661,10.661,0,0,1,153.36.6a13.275,13.275,0,0,1-5.52-1.11,12.7,12.7,0,0,1-4.23-3.06,13.238,13.238,0,0,1-2.7-4.65,18.139,18.139,0,0,1-.93-5.94V-25.74a15.267,15.267,0,0,0-.42-4.11,6.626,6.626,0,0,0-1.44-2.55h10.8v17.28a19.735,19.735,0,0,0,.39,4.29,7.652,7.652,0,0,0,1.14,2.76,4.281,4.281,0,0,0,1.8,1.5,5.962,5.962,0,0,0,2.37.45,5.744,5.744,0,0,0,3.06-.93,8.247,8.247,0,0,0,2.46-2.31V-24.42q0-1.86-.06-3.09a13.144,13.144,0,0,0-.24-2.07,6.675,6.675,0,0,0-.48-1.47,10.95,10.95,0,0,0-.78-1.35h10.5V-6.54q0,1.38.09,2.37a11.394,11.394,0,0,0,.27,1.71,5.486,5.486,0,0,0,.51,1.32,8.436,8.436,0,0,0,.81,1.2ZM194.46.6a12.87,12.87,0,0,1-4.02-.69,13.139,13.139,0,0,1-3.6-1.77V.06H175.86a19.185,19.185,0,0,0,1.26-1.83,7.855,7.855,0,0,0,.75-1.68,8.011,8.011,0,0,0,.33-1.92q.06-1.05.06-2.49v-29.4q0-1.8-.12-3.03a10.342,10.342,0,0,0-.42-2.16,5.58,5.58,0,0,0-.84-1.65,14.185,14.185,0,0,0-1.32-1.5H187.2v14.46A14.068,14.068,0,0,1,194.64-33a15.079,15.079,0,0,1,6.15,1.23,13.729,13.729,0,0,1,4.77,3.45,15.9,15.9,0,0,1,3.09,5.37,20.727,20.727,0,0,1,1.11,6.93,21.657,21.657,0,0,1-1.17,7.53,13.915,13.915,0,0,1-3.21,5.16,12.648,12.648,0,0,1-4.83,2.97A18.606,18.606,0,0,1,194.46.6Zm-1.14-26.58a7.344,7.344,0,0,0-3.27.78,8,8,0,0,0-2.85,2.46V-9.9a8.415,8.415,0,0,0,2.94,2.43,7.4,7.4,0,0,0,3.3.87,7.756,7.756,0,0,0,2.82-.51,5.931,5.931,0,0,0,2.31-1.62,7.888,7.888,0,0,0,1.56-2.91,14.642,14.642,0,0,0,.57-4.38q0-5.22-2.01-7.59A6.685,6.685,0,0,0,193.32-25.98Z" transform="translate(69 122)" fill="#aaaaaa"/>
    <path id="Path_4" data-name="Path 4" d="M229.26,0H215.28a6.808,6.808,0,0,0,1.11-2.4,15.769,15.769,0,0,0,.27-3.3V-39.66a15.494,15.494,0,0,0-.33-3.6,5.871,5.871,0,0,0-1.17-2.34h11.82a31.435,31.435,0,0,1,10.5,1.65,22.879,22.879,0,0,1,7.98,4.68,20.7,20.7,0,0,1,5.1,7.29,23.966,23.966,0,0,1,1.8,9.42,23.847,23.847,0,0,1-1.89,9.81A20.38,20.38,0,0,1,245.4-5.7a21.5,21.5,0,0,1-7.38,4.26A26.821,26.821,0,0,1,229.26,0Zm-.48-38.28h-3.06V-6.96q.84.12,1.62.18t1.98.06a12.025,12.025,0,0,0,4.98-1.05,11.669,11.669,0,0,0,4.08-3.06,14.912,14.912,0,0,0,2.76-4.98,20.928,20.928,0,0,0,1.02-6.81,20.745,20.745,0,0,0-.99-6.69,14.322,14.322,0,0,0-2.76-4.92,11.37,11.37,0,0,0-4.23-3.03A13.964,13.964,0,0,0,228.78-38.28Zm38.16,24.36a9.153,9.153,0,0,0,.9,3.18,8.3,8.3,0,0,0,1.89,2.49,8.827,8.827,0,0,0,2.7,1.65,9.042,9.042,0,0,0,3.33.6,14.5,14.5,0,0,0,5.76-1.08,18.588,18.588,0,0,0,5.22-3.6l-1.5,8.76a11.517,11.517,0,0,1-4.8,2.07,31.367,31.367,0,0,1-5.82.51,20.522,20.522,0,0,1-6.81-1.08,14.728,14.728,0,0,1-5.34-3.21,14.416,14.416,0,0,1-3.48-5.22,19.3,19.3,0,0,1-1.23-7.17,19.415,19.415,0,0,1,1.26-7.2,15.759,15.759,0,0,1,3.39-5.34,14.676,14.676,0,0,1,4.89-3.3A15.1,15.1,0,0,1,273.12-33,14.629,14.629,0,0,1,279-31.83a13.212,13.212,0,0,1,4.74,3.51,17.569,17.569,0,0,1,3.27,5.94,29.636,29.636,0,0,1,1.41,8.46Zm6.18-12.24a5.368,5.368,0,0,0-3.48,1.41,7.664,7.664,0,0,0-2.34,4.35h11.58a7.053,7.053,0,0,0-2.22-4.38A5.5,5.5,0,0,0,273.12-26.16Zm39.12-9.9q-1.62-3.48-4.38-3.48a2.474,2.474,0,0,0-2.04.99,4,4,0,0,0-.78,2.55v3.66h6.6v6.48h-6.66v20.4a12.675,12.675,0,0,0,.3,3.18A7.008,7.008,0,0,0,306.48,0H294.36a6.442,6.442,0,0,0,1.41-2.22,10.894,10.894,0,0,0,.33-3.12l.06-20.52h-3.84v-6.48h3.84v-4.02a11.4,11.4,0,0,1,.69-4.05,8.976,8.976,0,0,1,1.98-3.15,9.156,9.156,0,0,1,3.12-2.07,10.749,10.749,0,0,1,4.11-.75,13.632,13.632,0,0,1,4.5.69,8.98,8.98,0,0,1,3.3,1.95ZM336-21.3a6.527,6.527,0,0,0-2.34-2.85,5.332,5.332,0,0,0-2.94-.99,3.461,3.461,0,0,0-1.56.39,4.2,4.2,0,0,0-1.44,1.26,7.145,7.145,0,0,0-1.08,2.25,11.659,11.659,0,0,0-.42,3.36l-.06,11.52q0,1.26.09,2.16a9.639,9.639,0,0,0,.27,1.56,6.41,6.41,0,0,0,.51,1.29A15.027,15.027,0,0,0,327.84,0H315.12a14.283,14.283,0,0,0,1.02-1.5,8.468,8.468,0,0,0,.69-1.5,7.436,7.436,0,0,0,.36-1.74q.09-.96.09-2.22V-24.3a26.221,26.221,0,0,0-.12-2.7,9.659,9.659,0,0,0-.42-2.04,8.809,8.809,0,0,0-.78-1.71,11.8,11.8,0,0,0-1.2-1.65h11.46v2.58a9.727,9.727,0,0,1,3.03-2.34A7.756,7.756,0,0,1,332.7-33a9.1,9.1,0,0,1,2.94.51,7.564,7.564,0,0,1,2.64,1.53Zm13.86,7.38a9.154,9.154,0,0,0,.9,3.18,8.3,8.3,0,0,0,1.89,2.49,8.827,8.827,0,0,0,2.7,1.65,9.042,9.042,0,0,0,3.33.6,14.5,14.5,0,0,0,5.76-1.08,18.589,18.589,0,0,0,5.22-3.6l-1.5,8.76a11.517,11.517,0,0,1-4.8,2.07,31.366,31.366,0,0,1-5.82.51,20.522,20.522,0,0,1-6.81-1.08,14.728,14.728,0,0,1-5.34-3.21,14.416,14.416,0,0,1-3.48-5.22,19.3,19.3,0,0,1-1.23-7.17,19.415,19.415,0,0,1,1.26-7.2,15.759,15.759,0,0,1,3.39-5.34,14.676,14.676,0,0,1,4.89-3.3A15.1,15.1,0,0,1,356.04-33a14.629,14.629,0,0,1,5.88,1.17,13.212,13.212,0,0,1,4.74,3.51,17.569,17.569,0,0,1,3.27,5.94,29.634,29.634,0,0,1,1.41,8.46Zm6.18-12.24a5.368,5.368,0,0,0-3.48,1.41,7.664,7.664,0,0,0-2.34,4.35H361.8a7.053,7.053,0,0,0-2.22-4.38A5.5,5.5,0,0,0,356.04-26.16ZM385.26.66A20.291,20.291,0,0,1,380.7.09a18.52,18.52,0,0,1-4.32-1.53v-9.42a14.16,14.16,0,0,0,4.11,3.45,9.385,9.385,0,0,0,4.47,1.17,4.207,4.207,0,0,0,2.88-.78,2.727,2.727,0,0,0,.84-2.1,3.649,3.649,0,0,0-1.44-2.76,15.28,15.28,0,0,0-1.8-1.26q-1.2-.78-2.28-1.38-1.14-.72-2.37-1.56a14.01,14.01,0,0,1-2.28-1.95,9.207,9.207,0,0,1-1.71-2.58,8.2,8.2,0,0,1-.66-3.39,8.828,8.828,0,0,1,.72-3.57,7.8,7.8,0,0,1,2.13-2.85,10.352,10.352,0,0,1,3.48-1.89,14.865,14.865,0,0,1,4.71-.69,13.063,13.063,0,0,1,4.41.78,11.583,11.583,0,0,1,3.87,2.28v8.22a10.617,10.617,0,0,0-3.48-3.51,7.844,7.844,0,0,0-4.08-1.23,3.693,3.693,0,0,0-2.31.63,1.788,1.788,0,0,0-.81,1.41,3.258,3.258,0,0,0,1.32,2.46,9.479,9.479,0,0,0,.81.6q.45.3.99.6t1.11.63q.57.33,1.11.69,1.2.72,2.46,1.59a11.739,11.739,0,0,1,2.28,2.07,10.146,10.146,0,0,1,1.65,2.73,9.157,9.157,0,0,1,.63,3.51,10,10,0,0,1-.87,4.23,9.175,9.175,0,0,1-2.43,3.21,11.1,11.1,0,0,1-3.75,2.04A15.4,15.4,0,0,1,385.26.66ZM423.06,0q.54-.72.87-1.23a4.312,4.312,0,0,0,.51-1.11,6.515,6.515,0,0,0,.24-1.35q.06-.75.06-1.89V-16.86a17.567,17.567,0,0,0-.45-4.32A7.683,7.683,0,0,0,423-24a4.636,4.636,0,0,0-2.01-1.53,7.22,7.22,0,0,0-2.61-.45,7.139,7.139,0,0,0-3.06.81,9.1,9.1,0,0,0-3.06,2.49V-7.56q0,1.8.03,2.88a9.557,9.557,0,0,0,.21,1.86,6.2,6.2,0,0,0,.48,1.38A15.934,15.934,0,0,0,413.82,0h-12.9a16.589,16.589,0,0,0,1.26-1.62,5.465,5.465,0,0,0,.72-1.59,10.875,10.875,0,0,0,.33-2.04q.09-1.17.09-3.03V-37.26q0-1.8-.12-2.97a9.7,9.7,0,0,0-.42-2.07,7.367,7.367,0,0,0-.78-1.65,14.565,14.565,0,0,0-1.26-1.65h11.52v14.88a14.605,14.605,0,0,1,3.63-1.74A13,13,0,0,1,419.7-33a14.06,14.06,0,0,1,5.67,1.11,12.709,12.709,0,0,1,4.38,3.12,14.363,14.363,0,0,1,2.85,4.8,17.793,17.793,0,0,1,1.02,6.15V-5.58q0,1.2.06,1.98a6.58,6.58,0,0,0,.24,1.38,6.134,6.134,0,0,0,.45,1.11A7.24,7.24,0,0,0,435.12,0ZM449.1-13.92a9.154,9.154,0,0,0,.9,3.18,8.3,8.3,0,0,0,1.89,2.49,8.827,8.827,0,0,0,2.7,1.65,9.042,9.042,0,0,0,3.33.6,14.5,14.5,0,0,0,5.76-1.08,18.589,18.589,0,0,0,5.22-3.6l-1.5,8.76A11.517,11.517,0,0,1,462.6.15a31.366,31.366,0,0,1-5.82.51,20.522,20.522,0,0,1-6.81-1.08,14.728,14.728,0,0,1-5.34-3.21,14.416,14.416,0,0,1-3.48-5.22,19.3,19.3,0,0,1-1.23-7.17,19.415,19.415,0,0,1,1.26-7.2,15.759,15.759,0,0,1,3.39-5.34,14.676,14.676,0,0,1,4.89-3.3A15.1,15.1,0,0,1,455.28-33a14.629,14.629,0,0,1,5.88,1.17,13.212,13.212,0,0,1,4.74,3.51,17.569,17.569,0,0,1,3.27,5.94,29.634,29.634,0,0,1,1.41,8.46Zm6.18-12.24a5.368,5.368,0,0,0-3.48,1.41,7.664,7.664,0,0,0-2.34,4.35h11.58a7.053,7.053,0,0,0-2.22-4.38A5.5,5.5,0,0,0,455.28-26.16ZM498.3.06v-1.8a9.433,9.433,0,0,1-1.56.9,16.672,16.672,0,0,1-1.92.75,14.62,14.62,0,0,1-2.1.51,12.434,12.434,0,0,1-2.04.18,18.876,18.876,0,0,1-6.12-.96,12.44,12.44,0,0,1-4.86-3,13.9,13.9,0,0,1-3.18-5.19,22.177,22.177,0,0,1-1.14-7.53,19.336,19.336,0,0,1,1.17-6.84,16.836,16.836,0,0,1,3.18-5.37,13.852,13.852,0,0,1,4.8-3.48A14.78,14.78,0,0,1,490.56-33a15.352,15.352,0,0,1,7.38,1.74v-6a22.491,22.491,0,0,0-.15-2.76,10.148,10.148,0,0,0-.48-2.13,9.564,9.564,0,0,0-.84-1.77,12.8,12.8,0,0,0-1.23-1.68h11.58l.06,37.2q0,1.68.09,2.88a11.049,11.049,0,0,0,.36,2.16,6.247,6.247,0,0,0,.78,1.74A15.857,15.857,0,0,0,509.4.06Zm-.36-22.86a7.98,7.98,0,0,0-2.82-2.34,7.343,7.343,0,0,0-3.3-.84,6.731,6.731,0,0,0-5.31,2.37q-2.07,2.37-2.07,7.59a13.958,13.958,0,0,0,.6,4.38,8.555,8.555,0,0,0,1.59,2.94,6.089,6.089,0,0,0,2.31,1.68,7.22,7.22,0,0,0,2.76.54,7.389,7.389,0,0,0,3.39-.84,7.913,7.913,0,0,0,2.85-2.52Z" transform="translate(69 122)" fill="#87dfff"/>
    <path id="Path_3" data-name="Path 3" d="M30.791,6.445V0H27.979C23.818,0,23-.967,23-5.8v-8.145c0-4.014-2.871-6.592-8.174-6.914v-.527C20.127-21.709,23-24.316,23-28.3v-8.174c0-4.834.82-5.8,4.98-5.8h2.813v-6.445H26.074c-8.467,0-11.221,2.666-11.221,10.869v6.475c0,4.629-2.109,6.416-8.555,6.152v8.174c6.445-.234,8.555,1.553,8.555,6.182v6.445c0,8.2,2.754,10.869,11.221,10.869Z" transform="translate(27 122)" fill="#4b4b4b"/>
    <path id="Path_2" data-name="Path 2" d="M6.3,6.445h4.717c8.467,0,11.221-2.666,11.221-10.869v-6.445c0-4.629,2.109-6.416,8.555-6.182v-8.174c-6.445.264-8.555-1.523-8.555-6.152v-6.475c0-8.2-2.754-10.869-11.221-10.869H6.3v6.445H9.111c4.16,0,4.98.967,4.98,5.8V-28.3c0,3.984,2.871,6.592,8.174,6.914v.527c-5.3.322-8.174,2.9-8.174,6.914V-5.8c0,4.834-.82,5.8-4.98,5.8H6.3Z" transform="translate(586 122)" fill="#4b4b4b"/>
    <path id="Path_1" data-name="Path 1" d="M6.3,6.445h4.717c8.467,0,11.221-2.666,11.221-10.869v-6.445c0-4.629,2.109-6.416,8.555-6.182v-8.174c-6.445.264-8.555-1.523-8.555-6.152v-6.475c0-8.2-2.754-10.869-11.221-10.869H6.3v6.445H9.111c4.16,0,4.98.967,4.98,5.8V-28.3c0,3.984,2.871,6.592,8.174,6.914v.527c-5.3.322-8.174,2.9-8.174,6.914V-5.8c0,4.834-.82,5.8-4.98,5.8H6.3Z" transform="translate(586 122)" fill="#4b4b4b"/>
  </g>
</svg>
